<mxfile host="65bd71144e">
    <diagram id="llVbQPL0XXEiWHt-szTH" name="Page-1">
        <mxGraphModel dx="1829" dy="2380" grid="1" gridSize="10" guides="1" tooltips="1" connect="1" arrows="1" fold="1" page="1" pageScale="1" pageWidth="827" pageHeight="1169" math="0" shadow="0">
            <root>
                <mxCell id="0"/>
                <mxCell id="1" parent="0"/>
                <mxCell id="2" value="&lt;p style=&quot;margin:0px;margin-top:4px;text-align:center;&quot;&gt;&lt;b&gt;Streaming&lt;/b&gt;&lt;/p&gt;&lt;hr size=&quot;1&quot; style=&quot;border-style:solid;&quot;&gt;&lt;p style=&quot;margin:0px;margin-left:4px;&quot;&gt;- contenido: vector&amp;lt;Contenido&amp;gt;&lt;/p&gt;&lt;hr size=&quot;1&quot; style=&quot;border-style:solid;&quot;&gt;&lt;p style=&quot;margin:0px;margin-left:4px;&quot;&gt;+inciar():void&lt;/p&gt;&lt;p style=&quot;margin:0px;margin-left:4px;&quot;&gt;+cargaArchivo(): void&lt;/p&gt;&lt;p style=&quot;margin:0px;margin-left:4px;&quot;&gt;+agregarContenido(&lt;font&gt;&lt;span style=&quot;font-family: Arial; font-kerning: none; -webkit-text-stroke-color: rgb(67, 192, 160);&quot; class=&quot;s1&quot;&gt;string&lt;/span&gt;&lt;span style=&quot;font-family: Arial; font-kerning: none; -webkit-text-stroke-color: rgb(193, 193, 193);&quot; class=&quot;s2&quot;&gt; &lt;/span&gt;&lt;span style=&quot;font-family: Arial; -webkit-text-stroke-color: rgb(142, 213, 255); font-kerning: none;&quot; class=&quot;s3&quot;&gt;idCont&lt;/span&gt;&lt;span style=&quot;font-family: Arial; font-kerning: none; -webkit-text-stroke-color: rgb(193, 193, 193);&quot; class=&quot;s2&quot;&gt;, &lt;/span&gt;&lt;span style=&quot;font-family: Arial; font-kerning: none; -webkit-text-stroke-color: rgb(67, 192, 160);&quot; class=&quot;s1&quot;&gt;string&lt;/span&gt;&lt;span style=&quot;font-family: Arial; font-kerning: none; -webkit-text-stroke-color: rgb(193, 193, 193);&quot; class=&quot;s2&quot;&gt; &lt;/span&gt;&lt;span style=&quot;font-family: Arial; -webkit-text-stroke-color: rgb(142, 213, 255); font-kerning: none;&quot; class=&quot;s3&quot;&gt;nombreCont&lt;/span&gt;&lt;span style=&quot;font-family: Arial; font-kerning: none; -webkit-text-stroke-color: rgb(193, 193, 193);&quot; class=&quot;s2&quot;&gt;, &lt;/span&gt;&lt;span style=&quot;font-family: Arial; font-kerning: none; -webkit-text-stroke-color: rgb(72, 139, 206);&quot; class=&quot;s4&quot;&gt;int&lt;/span&gt;&lt;span style=&quot;font-family: Arial; font-kerning: none; -webkit-text-stroke-color: rgb(193, 193, 193);&quot; class=&quot;s2&quot;&gt; &lt;/span&gt;&lt;span style=&quot;font-family: Arial; -webkit-text-stroke-color: rgb(142, 213, 255); font-kerning: none;&quot; class=&quot;s3&quot;&gt;duracion&lt;/span&gt;&lt;span style=&quot;font-family: Arial; font-kerning: none; -webkit-text-stroke-color: rgb(193, 193, 193);&quot; class=&quot;s2&quot;&gt;, &lt;/span&gt;&lt;span style=&quot;font-family: Arial; font-kerning: none; -webkit-text-stroke-color: rgb(67, 192, 160);&quot; class=&quot;s1&quot;&gt;vector&lt;/span&gt;&lt;span style=&quot;font-family: Arial; font-kerning: none; -webkit-text-stroke-color: rgb(193, 193, 193);&quot; class=&quot;s2&quot;&gt;&amp;lt;&lt;/span&gt;&lt;span style=&quot;font-family: Arial; font-kerning: none; -webkit-text-stroke-color: rgb(67, 192, 160);&quot; class=&quot;s1&quot;&gt;string&lt;/span&gt;&lt;span style=&quot;font-family: Arial; font-kerning: none; -webkit-text-stroke-color: rgb(193, 193, 193);&quot; class=&quot;s2&quot;&gt;&amp;gt; &lt;/span&gt;&lt;span style=&quot;font-family: Arial; -webkit-text-stroke-color: rgb(142, 213, 255); font-kerning: none;&quot; class=&quot;s3&quot;&gt;generosCont&lt;/span&gt;&lt;span style=&quot;font-family: Arial; font-kerning: none; -webkit-text-stroke-color: rgb(193, 193, 193);&quot; class=&quot;s2&quot;&gt;, &lt;/span&gt;&lt;span style=&quot;font-family: Arial; font-kerning: none; -webkit-text-stroke-color: rgb(72, 139, 206);&quot; class=&quot;s4&quot;&gt;float&lt;/span&gt;&lt;span style=&quot;font-family: Arial; font-kerning: none; -webkit-text-stroke-color: rgb(193, 193, 193);&quot; class=&quot;s2&quot;&gt; &lt;/span&gt;&lt;span style=&quot;font-family: Arial; -webkit-text-stroke-color: rgb(142, 213, 255); font-kerning: none;&quot; class=&quot;s3&quot;&gt;calificacionCont&lt;/span&gt;&lt;span style=&quot;font-family: Arial; font-kerning: none; -webkit-text-stroke-color: rgb(193, 193, 193);&quot; class=&quot;s2&quot;&gt;, &lt;/span&gt;&lt;span style=&quot;font-family: Arial; font-kerning: none; -webkit-text-stroke-color: rgb(67, 192, 160);&quot; class=&quot;s1&quot;&gt;string&lt;/span&gt;&lt;span style=&quot;font-family: Arial; font-kerning: none; -webkit-text-stroke-color: rgb(193, 193, 193);&quot; class=&quot;s2&quot;&gt; &lt;/span&gt;&lt;span style=&quot;font-family: Arial; -webkit-text-stroke-color: rgb(142, 213, 255); font-kerning: none;&quot; class=&quot;s3&quot;&gt;fecha_estrenoCont&lt;/span&gt;&lt;span style=&quot;font-family: Arial; font-kerning: none; -webkit-text-stroke-color: rgb(193, 193, 193);&quot; class=&quot;s2&quot;&gt;, &lt;/span&gt;&lt;span style=&quot;font-family: Arial; font-kerning: none; -webkit-text-stroke-color: rgb(67, 192, 160);&quot; class=&quot;s1&quot;&gt;string&lt;/span&gt;&lt;span style=&quot;font-family: Arial; font-kerning: none; -webkit-text-stroke-color: rgb(193, 193, 193);&quot; class=&quot;s2&quot;&gt; &lt;/span&gt;&lt;span style=&quot;font-family: Arial; -webkit-text-stroke-color: rgb(142, 213, 255); font-kerning: none;&quot; class=&quot;s3&quot;&gt;nombreEpi&lt;/span&gt;&lt;span style=&quot;font-family: Arial; font-kerning: none; -webkit-text-stroke-color: rgb(193, 193, 193);&quot; class=&quot;s2&quot;&gt;,&lt;span class=&quot;Apple-converted-space&quot;&gt;&amp;nbsp; &lt;/span&gt;&lt;/span&gt;&lt;span style=&quot;font-family: Arial; font-kerning: none; -webkit-text-stroke-color: rgb(72, 139, 206);&quot; class=&quot;s4&quot;&gt;int&lt;/span&gt;&lt;span style=&quot;font-family: Arial; font-kerning: none; -webkit-text-stroke-color: rgb(193, 193, 193);&quot; class=&quot;s2&quot;&gt; &lt;/span&gt;&lt;span style=&quot;font-family: Arial; -webkit-text-stroke-color: rgb(142, 213, 255); font-kerning: none;&quot; class=&quot;s3&quot;&gt;temporada_perteneceEpi&lt;/span&gt;&lt;span style=&quot;font-family: Arial; font-kerning: none; -webkit-text-stroke-color: rgb(193, 193, 193);&quot; class=&quot;s2&quot;&gt;, &lt;/span&gt;&lt;span style=&quot;font-family: Arial; font-kerning: none; -webkit-text-stroke-color: rgb(72, 139, 206);&quot; class=&quot;s4&quot;&gt;int&lt;/span&gt;&lt;span style=&quot;font-family: Arial; font-kerning: none; -webkit-text-stroke-color: rgb(193, 193, 193);&quot; class=&quot;s2&quot;&gt; &lt;/span&gt;&lt;span style=&quot;font-family: Arial; -webkit-text-stroke-color: rgb(142, 213, 255); font-kerning: none;&quot; class=&quot;s3&quot;&gt;num_episodioEpi&lt;/span&gt;&lt;span style=&quot;font-family: Arial; font-kerning: none; -webkit-text-stroke-color: rgb(193, 193, 193);&quot; class=&quot;s2&quot;&gt;, &lt;/span&gt;&lt;span style=&quot;font-family: Arial; font-kerning: none; -webkit-text-stroke-color: rgb(67, 192, 160);&quot; class=&quot;s1&quot;&gt;string&lt;/span&gt;&lt;span style=&quot;font-family: Arial; font-kerning: none; -webkit-text-stroke-color: rgb(193, 193, 193);&quot; class=&quot;s2&quot;&gt; &lt;/span&gt;&lt;span style=&quot;font-family: Arial; -webkit-text-stroke-color: rgb(142, 213, 255); font-kerning: none;&quot; class=&quot;s3&quot;&gt;idEpi&lt;/span&gt;&lt;/font&gt;&lt;span style=&quot;background-color: transparent; color: light-dark(rgb(0, 0, 0), rgb(255, 255, 255));&quot;&gt;): void&lt;/span&gt;&lt;/p&gt;&lt;p style=&quot;margin:0px;margin-left:4px;&quot;&gt;+agregarContenido(&lt;span style=&quot;font-family: Arial; font-kerning: none; -webkit-text-stroke-color: rgb(67, 192, 160);&quot; class=&quot;s1&quot;&gt;string&lt;/span&gt;&lt;span style=&quot;font-family: Arial; font-kerning: none; -webkit-text-stroke-color: rgb(193, 193, 193);&quot; class=&quot;s2&quot;&gt;&amp;nbsp;&lt;/span&gt;&lt;span style=&quot;font-family: Arial; -webkit-text-stroke-color: rgb(142, 213, 255); font-kerning: none;&quot; class=&quot;s3&quot;&gt;idCont&lt;/span&gt;&lt;span style=&quot;font-family: Arial; font-kerning: none; -webkit-text-stroke-color: rgb(193, 193, 193);&quot; class=&quot;s2&quot;&gt;,&amp;nbsp;&lt;/span&gt;&lt;span style=&quot;font-family: Arial; font-kerning: none; -webkit-text-stroke-color: rgb(67, 192, 160);&quot; class=&quot;s1&quot;&gt;string&lt;/span&gt;&lt;span style=&quot;font-family: Arial; font-kerning: none; -webkit-text-stroke-color: rgb(193, 193, 193);&quot; class=&quot;s2&quot;&gt;&amp;nbsp;&lt;/span&gt;&lt;span style=&quot;font-family: Arial; -webkit-text-stroke-color: rgb(142, 213, 255); font-kerning: none;&quot; class=&quot;s3&quot;&gt;nombreCont&lt;/span&gt;&lt;span style=&quot;font-family: Arial; font-kerning: none; -webkit-text-stroke-color: rgb(193, 193, 193);&quot; class=&quot;s2&quot;&gt;,&amp;nbsp;&lt;/span&gt;&lt;/p&gt;&lt;p style=&quot;margin:0px;margin-left:4px;&quot;&gt;&lt;span style=&quot;font-family: Arial; font-kerning: none; -webkit-text-stroke-color: rgb(72, 139, 206);&quot; class=&quot;s4&quot;&gt;int&lt;/span&gt;&lt;span style=&quot;font-family: Arial; font-kerning: none; -webkit-text-stroke-color: rgb(193, 193, 193);&quot; class=&quot;s2&quot;&gt;&amp;nbsp;&lt;/span&gt;&lt;span style=&quot;font-family: Arial; -webkit-text-stroke-color: rgb(142, 213, 255); font-kerning: none;&quot; class=&quot;s3&quot;&gt;duracion&lt;/span&gt;&lt;span style=&quot;font-family: Arial; font-kerning: none; -webkit-text-stroke-color: rgb(193, 193, 193);&quot; class=&quot;s2&quot;&gt;,&amp;nbsp;&lt;/span&gt;&lt;span style=&quot;font-family: Arial; font-kerning: none; -webkit-text-stroke-color: rgb(67, 192, 160);&quot; class=&quot;s1&quot;&gt;vector&lt;/span&gt;&lt;span style=&quot;font-family: Arial; font-kerning: none; -webkit-text-stroke-color: rgb(193, 193, 193);&quot; class=&quot;s2&quot;&gt;&amp;lt;&lt;/span&gt;&lt;span style=&quot;font-family: Arial; font-kerning: none; -webkit-text-stroke-color: rgb(67, 192, 160);&quot; class=&quot;s1&quot;&gt;string&lt;/span&gt;&lt;span style=&quot;font-family: Arial; font-kerning: none; -webkit-text-stroke-color: rgb(193, 193, 193);&quot; class=&quot;s2&quot;&gt;&amp;gt;&amp;nbsp;&lt;/span&gt;&lt;span style=&quot;font-family: Arial; -webkit-text-stroke-color: rgb(142, 213, 255); font-kerning: none;&quot; class=&quot;s3&quot;&gt;generosCont&lt;/span&gt;&lt;span style=&quot;font-family: Arial; font-kerning: none; -webkit-text-stroke-color: rgb(193, 193, 193);&quot; class=&quot;s2&quot;&gt;,&amp;nbsp;&lt;/span&gt;&lt;/p&gt;&lt;p style=&quot;margin:0px;margin-left:4px;&quot;&gt;&lt;span style=&quot;font-family: Arial; font-kerning: none; -webkit-text-stroke-color: rgb(72, 139, 206);&quot; class=&quot;s4&quot;&gt;float&lt;/span&gt;&lt;span style=&quot;font-family: Arial; font-kerning: none; -webkit-text-stroke-color: rgb(193, 193, 193);&quot; class=&quot;s2&quot;&gt;&amp;nbsp;&lt;/span&gt;&lt;span style=&quot;font-family: Arial; -webkit-text-stroke-color: rgb(142, 213, 255); font-kerning: none;&quot; class=&quot;s3&quot;&gt;calificacionCont&lt;/span&gt;&lt;span style=&quot;font-family: Arial; font-kerning: none; -webkit-text-stroke-color: rgb(193, 193, 193);&quot; class=&quot;s2&quot;&gt;,&amp;nbsp;&lt;/span&gt;&lt;span style=&quot;font-family: Arial; font-kerning: none; -webkit-text-stroke-color: rgb(67, 192, 160);&quot; class=&quot;s1&quot;&gt;string&lt;/span&gt;&lt;span style=&quot;font-family: Arial; font-kerning: none; -webkit-text-stroke-color: rgb(193, 193, 193);&quot; class=&quot;s2&quot;&gt;&amp;nbsp;&lt;/span&gt;&lt;span style=&quot;font-family: Arial; -webkit-text-stroke-color: rgb(142, 213, 255); font-kerning: none;&quot; class=&quot;s3&quot;&gt;fecha_estrenoCont&lt;/span&gt;&lt;span style=&quot;font-family: Arial; font-kerning: none; -webkit-text-stroke-color: rgb(193, 193, 193);&quot; class=&quot;s2&quot;&gt;,&lt;/span&gt;&lt;span style=&quot;background-color: transparent; color: light-dark(rgb(0, 0, 0), rgb(255, 255, 255));&quot;&gt;): void&lt;/span&gt;&lt;/p&gt;&lt;p style=&quot;margin:0px;margin-left:4px;&quot;&gt;+mostrarVideos(): void&lt;/p&gt;&lt;p style=&quot;margin:0px;margin-left:4px;&quot;&gt;+mostrarVideosPorCalificacion(int): int&amp;nbsp;&lt;/p&gt;&lt;p style=&quot;margin:0px;margin-left:4px;&quot;&gt;+mostrarVideosPorGenero(string): int&amp;nbsp;&lt;/p&gt;&lt;p style=&quot;margin:0px;margin-left:4px;&quot;&gt;+busquedaPorSerie(): void&lt;/p&gt;&lt;p style=&quot;margin:0px;margin-left:4px;&quot;&gt;+buscarPelisPorCalificacion(): int&lt;/p&gt;&lt;p style=&quot;margin:0px;margin-left:4px;&quot;&gt;&lt;span style=&quot;background-color: transparent; color: light-dark(rgb(0, 0, 0), rgb(255, 255, 255));&quot;&gt;+calificarVidep(): void&lt;/span&gt;&lt;/p&gt;" style="verticalAlign=top;align=left;overflow=fill;html=1;whiteSpace=wrap;" vertex="1" parent="1">
                    <mxGeometry x="262.91" y="-133" width="330" height="293" as="geometry"/>
                </mxCell>
                <mxCell id="3" value="&lt;p style=&quot;margin:0px;margin-top:4px;text-align:center;&quot;&gt;&lt;b style=&quot;background-color: light-dark(#ffffff, var(--ge-dark-color, #121212));&quot;&gt;Serie&lt;/b&gt;&lt;/p&gt;&lt;hr size=&quot;1&quot; style=&quot;border-style:solid;&quot;&gt;&lt;p style=&quot;margin: 0px 0px 0px 4px;&quot;&gt;&lt;span style=&quot;background-color: light-dark(#ffffff, var(--ge-dark-color, #121212));&quot;&gt;- id: string&lt;/span&gt;&lt;/p&gt;&lt;p style=&quot;margin: 0px 0px 0px 4px;&quot;&gt;&lt;span style=&quot;background-color: light-dark(#ffffff, var(--ge-dark-color, #121212));&quot;&gt;- nombre: string&lt;/span&gt;&lt;/p&gt;&lt;span style=&quot;background-color: light-dark(#ffffff, var(--ge-dark-color, #121212));&quot;&gt;&amp;nbsp;- episodios: vector&amp;lt;Episodio*&amp;gt;&lt;/span&gt;&lt;div&gt;&lt;p style=&quot;margin: 0px 0px 0px 4px;&quot;&gt;&lt;span style=&quot;background-color: light-dark(#ffffff, var(--ge-dark-color, #121212));&quot;&gt;- generos: vector&amp;lt;string&amp;gt;&lt;/span&gt;&lt;/p&gt;&lt;p style=&quot;margin: 0px 0px 0px 4px;&quot;&gt;&lt;span style=&quot;color: rgb(63, 63, 63); background-color: light-dark(#ffffff, var(--ge-dark-color, #121212));&quot;&gt;&lt;/span&gt;&lt;/p&gt;&lt;hr size=&quot;1&quot; style=&quot;border-style:solid;&quot;&gt;&lt;p style=&quot;margin:0px;margin-left:4px;&quot;&gt;&lt;span style=&quot;background-color: light-dark(#ffffff, var(--ge-dark-color, #121212));&quot;&gt;+Serie()&lt;/span&gt;&lt;/p&gt;&lt;p style=&quot;margin:0px;margin-left:4px;&quot;&gt;&lt;span style=&quot;background-color: light-dark(#ffffff, var(--ge-dark-color, #121212));&quot;&gt;+Serie(string id, string nombre, vector&amp;lt;string&amp;gt; genero)&lt;/span&gt;&lt;/p&gt;&lt;p style=&quot;margin:0px;margin-left:4px;&quot;&gt;&lt;span style=&quot;background-color: light-dark(#ffffff, var(--ge-dark-color, #121212));&quot;&gt;+buscarPor&lt;/span&gt;Calificacion(int): int&lt;/p&gt;&lt;p style=&quot;margin:0px;margin-left:4px;&quot;&gt;+buscarPorGenero(string): int&lt;/p&gt;&lt;p style=&quot;margin: 0px; font-variant-numeric: normal; font-variant-east-asian: normal; font-variant-alternates: normal; font-size-adjust: none; font-kerning: auto; font-optical-sizing: auto; font-feature-settings: normal; font-variation-settings: normal; font-variant-position: normal; font-variant-emoji: normal; font-stretch: normal; line-height: normal; -webkit-text-stroke-color: rgb(140, 211, 254);&quot; class=&quot;p1&quot;&gt;&lt;span style=&quot;font-kerning: none; -webkit-text-stroke-color: rgb(70, 137, 204);&quot; class=&quot;s1&quot;&gt;void&lt;/span&gt;&lt;span style=&quot;font-kerning: none; -webkit-text-stroke-color: rgb(193, 193, 193);&quot; class=&quot;s2&quot;&gt; &lt;/span&gt;&lt;span style=&quot;font-kerning: none; -webkit-text-stroke-color: rgb(212, 214, 154);&quot; class=&quot;s3&quot;&gt;agregarEpisodio&lt;/span&gt;&lt;span style=&quot;font-kerning: none; -webkit-text-stroke-color: rgb(193, 193, 193);&quot; class=&quot;s2&quot;&gt;(&lt;/span&gt;&lt;span style=&quot;font-kerning: none; -webkit-text-stroke-color: rgb(67, 192, 160);&quot; class=&quot;s4&quot;&gt;string&lt;/span&gt;&lt;span style=&quot;font-kerning: none; -webkit-text-stroke-color: rgb(193, 193, 193);&quot; class=&quot;s2&quot;&gt; &lt;/span&gt;&lt;span style=&quot;font-kerning: none;&quot; class=&quot;s5&quot;&gt;idEpi&lt;/span&gt;&lt;span style=&quot;font-kerning: none; -webkit-text-stroke-color: rgb(193, 193, 193);&quot; class=&quot;s2&quot;&gt;, &lt;/span&gt;&lt;span style=&quot;font-kerning: none; -webkit-text-stroke-color: rgb(67, 192, 160);&quot; class=&quot;s4&quot;&gt;string&lt;/span&gt;&lt;span style=&quot;font-kerning: none; -webkit-text-stroke-color: rgb(193, 193, 193);&quot; class=&quot;s2&quot;&gt; &lt;/span&gt;&lt;span style=&quot;font-kerning: none;&quot; class=&quot;s5&quot;&gt;nombreEpi&lt;/span&gt;&lt;span style=&quot;font-kerning: none; -webkit-text-stroke-color: rgb(193, 193, 193);&quot; class=&quot;s2&quot;&gt;, &lt;/span&gt;&lt;span style=&quot;font-kerning: none; -webkit-text-stroke-color: rgb(67, 192, 160);&quot; class=&quot;s4&quot;&gt;string&lt;/span&gt;&lt;span style=&quot;font-kerning: none; -webkit-text-stroke-color: rgb(193, 193, 193);&quot; class=&quot;s2&quot;&gt; &lt;/span&gt;&lt;span style=&quot;font-kerning: none;&quot; class=&quot;s5&quot;&gt;fecha_estrenoEpi&lt;/span&gt;&lt;span style=&quot;font-kerning: none; -webkit-text-stroke-color: rgb(193, 193, 193);&quot; class=&quot;s2&quot;&gt;, &lt;/span&gt;&lt;span style=&quot;font-kerning: none; -webkit-text-stroke-color: rgb(70, 137, 204);&quot; class=&quot;s1&quot;&gt;int&lt;/span&gt;&lt;span style=&quot;font-kerning: none; -webkit-text-stroke-color: rgb(193, 193, 193);&quot; class=&quot;s2&quot;&gt; &lt;/span&gt;&lt;span style=&quot;font-kerning: none;&quot; class=&quot;s5&quot;&gt;duracionEpi&lt;/span&gt;&lt;span style=&quot;font-kerning: none; -webkit-text-stroke-color: rgb(193, 193, 193);&quot; class=&quot;s2&quot;&gt;, &lt;/span&gt;&lt;span style=&quot;font-kerning: none; -webkit-text-stroke-color: rgb(70, 137, 204);&quot; class=&quot;s1&quot;&gt;float&lt;/span&gt;&lt;span style=&quot;font-kerning: none; -webkit-text-stroke-color: rgb(193, 193, 193);&quot; class=&quot;s2&quot;&gt; &lt;/span&gt;&lt;span style=&quot;font-kerning: none;&quot; class=&quot;s5&quot;&gt;calificacionEpi&lt;/span&gt;&lt;span style=&quot;font-kerning: none; -webkit-text-stroke-color: rgb(193, 193, 193);&quot; class=&quot;s2&quot;&gt;, &lt;/span&gt;&lt;span style=&quot;font-kerning: none; -webkit-text-stroke-color: rgb(70, 137, 204);&quot; class=&quot;s1&quot;&gt;int&lt;/span&gt;&lt;span style=&quot;font-kerning: none; -webkit-text-stroke-color: rgb(193, 193, 193);&quot; class=&quot;s2&quot;&gt; &lt;/span&gt;&lt;span style=&quot;font-kerning: none;&quot; class=&quot;s5&quot;&gt;numero_episodioIn&lt;/span&gt;&lt;span style=&quot;font-kerning: none; -webkit-text-stroke-color: rgb(193, 193, 193);&quot; class=&quot;s2&quot;&gt; ,&lt;/span&gt;&lt;span style=&quot;font-kerning: none; -webkit-text-stroke-color: rgb(70, 137, 204);&quot; class=&quot;s1&quot;&gt;int&lt;/span&gt;&lt;span style=&quot;font-kerning: none; -webkit-text-stroke-color: rgb(193, 193, 193);&quot; class=&quot;s2&quot;&gt; &lt;/span&gt;&lt;span style=&quot;font-kerning: none;&quot; class=&quot;s5&quot;&gt;temporada_perteneceIn&lt;/span&gt;&lt;span style=&quot;font-kerning: none; -webkit-text-stroke-color: rgb(193, 193, 193);&quot; class=&quot;s2&quot;&gt;);&lt;/span&gt;&lt;/p&gt;&lt;p style=&quot;margin: 0px; font-variant-numeric: normal; font-variant-east-asian: normal; font-variant-alternates: normal; font-size-adjust: none; font-kerning: auto; font-optical-sizing: auto; font-feature-settings: normal; font-variation-settings: normal; font-variant-position: normal; font-variant-emoji: normal; font-stretch: normal; line-height: normal; -webkit-text-stroke-color: rgb(140, 211, 254);&quot; class=&quot;p1&quot;&gt;&lt;span style=&quot;-webkit-text-stroke-color: rgb(71, 71, 71);&quot;&gt;&amp;nbsp;+buscarPorNombre(string nom): bool&lt;/span&gt;&lt;/p&gt;&lt;div style=&quot;line-height: 18px;&quot;&gt;&lt;div style=&quot;&quot;&gt;&amp;nbsp;+setCalificacion(string nom,float calif): int&lt;/div&gt;&lt;div style=&quot;&quot;&gt;&amp;nbsp;+imprimir(): void&lt;/div&gt;&lt;div style=&quot;&quot;&gt;&amp;nbsp;+friend operator&amp;lt;&amp;lt;(ostream &amp;amp; cout, Serie &amp;amp;serie):&lt;span style=&quot;background-color: transparent; color: light-dark(rgb(0, 0, 0), rgb(255, 255, 255));&quot;&gt;ostream&lt;/span&gt;&lt;span style=&quot;background-color: transparent; color: light-dark(rgb(0, 0, 0), rgb(255, 255, 255));&quot;&gt;&amp;amp;&lt;/span&gt;&lt;span style=&quot;background-color: transparent; color: light-dark(rgb(0, 0, 0), rgb(255, 255, 255));&quot;&gt;&amp;nbsp;&lt;/span&gt;&lt;/div&gt;&lt;/div&gt;&lt;/div&gt;" style="verticalAlign=top;align=left;overflow=fill;html=1;whiteSpace=wrap;" vertex="1" parent="1">
                    <mxGeometry x="469.91" y="250" width="323.09" height="330" as="geometry"/>
                </mxCell>
                <mxCell id="4" value="&lt;p style=&quot;margin:0px;margin-top:4px;text-align:center;&quot;&gt;&lt;b&gt;Pelicula&lt;/b&gt;&lt;/p&gt;&lt;hr size=&quot;1&quot; style=&quot;border-style:solid;&quot;&gt;&lt;p style=&quot;margin: 0px 0px 0px 4px;&quot;&gt;# genero: vector&amp;lt;string&amp;gt;&lt;/p&gt;&lt;div&gt;&lt;br&gt;&lt;/div&gt;&lt;hr size=&quot;1&quot; style=&quot;border-style:solid;&quot;&gt;&lt;p style=&quot;margin:0px;margin-left:4px;&quot;&gt;&lt;/p&gt;&lt;p style=&quot;margin:0px;margin-left:4px;&quot;&gt;+Pelicula()&lt;/p&gt;&lt;p style=&quot;margin:0px;margin-left:4px;&quot;&gt;+Pelicula(string idPeli, string nombrePeli, int duracionPeli,vector&amp;lt;string&amp;gt; generosPeli, float calificacionPeli, string fecha_estrenoPeli)&lt;/p&gt;&lt;p style=&quot;margin:0px;margin-left:4px;&quot;&gt;+buscarPorCalificacion(int calif):&lt;span style=&quot;background-color: transparent; color: light-dark(rgb(0, 0, 0), rgb(255, 255, 255));&quot;&gt;int&lt;/span&gt;&lt;span style=&quot;background-color: transparent; color: light-dark(rgb(0, 0, 0), rgb(255, 255, 255));&quot;&gt;&amp;nbsp;&lt;/span&gt;&lt;/p&gt;&lt;div style=&quot;line-height: 18px;&quot;&gt;&lt;div style=&quot;&quot;&gt;&amp;nbsp;+buscarPorGenero(string gen):&lt;span style=&quot;background-color: transparent; color: light-dark(rgb(0, 0, 0), rgb(255, 255, 255));&quot;&gt;int&lt;/span&gt;&lt;/div&gt;&lt;div style=&quot;&quot;&gt;&amp;nbsp;+setCalificacion(string nom,float calif):&lt;span style=&quot;background-color: transparent; color: light-dark(rgb(0, 0, 0), rgb(255, 255, 255));&quot;&gt;int&lt;/span&gt;&lt;span style=&quot;background-color: transparent; color: light-dark(rgb(0, 0, 0), rgb(255, 255, 255));&quot;&gt;&amp;nbsp;&lt;/span&gt;&lt;/div&gt;&lt;div style=&quot;&quot;&gt;&amp;nbsp;+buscarPorNombre(string nom):&lt;span style=&quot;background-color: transparent; color: light-dark(rgb(0, 0, 0), rgb(255, 255, 255));&quot;&gt;&amp;nbsp;bool&lt;/span&gt;&lt;/div&gt;&lt;div style=&quot;&quot;&gt;    &amp;nbsp;+friend&amp;nbsp;operator&amp;lt;&amp;lt;(ostream &amp;amp;os , Pelicula &amp;amp;pelicula):&amp;nbsp;&lt;span style=&quot;background-color: transparent; color: light-dark(rgb(0, 0, 0), rgb(255, 255, 255));&quot;&gt;ostream&lt;/span&gt;&lt;span style=&quot;background-color: transparent; color: light-dark(rgb(0, 0, 0), rgb(255, 255, 255));&quot;&gt;&amp;amp;&lt;/span&gt;&lt;/div&gt;&lt;div style=&quot;&quot;&gt;&lt;div style=&quot;line-height: 18px;&quot;&gt;&lt;div style=&quot;&quot;&gt;&amp;nbsp;+imprimir():&lt;span style=&quot;background-color: transparent; color: light-dark(rgb(0, 0, 0), rgb(255, 255, 255));&quot;&gt;&amp;nbsp;void&lt;/span&gt;&lt;/div&gt;&lt;div style=&quot;color: rgb(204, 204, 204); font-family: Menlo, Monaco, &amp;quot;Courier New&amp;quot;, monospace; white-space: pre; background-color: rgb(31, 31, 31);&quot;&gt;&lt;/div&gt;&lt;/div&gt;&lt;/div&gt;&lt;div style=&quot;color: rgb(204, 204, 204); font-family: Menlo, Monaco, &amp;quot;Courier New&amp;quot;, monospace; white-space: pre; background-color: rgb(31, 31, 31);&quot;&gt;&lt;/div&gt;&lt;/div&gt;" style="verticalAlign=top;align=left;overflow=fill;html=1;whiteSpace=wrap;" vertex="1" parent="1">
                    <mxGeometry x="60" y="850" width="233.91" height="280" as="geometry"/>
                </mxCell>
                <mxCell id="5" value="&lt;p style=&quot;margin: 4px 0px 0px; text-align: center;&quot;&gt;&lt;b&gt;Episodio&lt;/b&gt;&lt;/p&gt;&lt;hr size=&quot;1&quot; style=&quot;border-style:solid;&quot;&gt;&lt;p style=&quot;margin:0px;margin-left:4px;&quot;&gt;&lt;span style=&quot;background-color: transparent;&quot;&gt;- numero_episodio:int&lt;/span&gt;&lt;/p&gt;&lt;p style=&quot;margin:0px;margin-left:4px;&quot;&gt;- temporada_que pertenece:int&lt;/p&gt;&lt;p style=&quot;margin: 0px 0px 0px 4px;&quot;&gt;&lt;br&gt;&lt;/p&gt;&lt;hr size=&quot;1&quot; style=&quot;border-style:solid;&quot;&gt;&lt;p style=&quot;margin:0px;margin-left:4px;&quot;&gt;+Episodio()&lt;/p&gt;&lt;p style=&quot;margin:0px;margin-left:4px;&quot;&gt;+Episodio(string id, string nombre, string fecha_estreno, int duracion, float calificacion, int numero_episodio, int temporada_que_pertenece)&lt;/p&gt;&lt;p style=&quot;margin:0px;margin-left:4px;&quot;&gt;+buscarPorCalificacion(int): int&lt;/p&gt;&lt;p style=&quot;margin:0px;margin-left:4px;&quot;&gt;+buscarPorNombre(string):&lt;span style=&quot;background-color: transparent; color: light-dark(rgb(0, 0, 0), rgb(255, 255, 255));&quot;&gt;&amp;nbsp;bool&lt;/span&gt;&lt;/p&gt;&lt;div style=&quot;line-height: 18px;&quot;&gt;&lt;div style=&quot;&quot;&gt;    friend operator&amp;lt;&amp;lt;(ostream &amp;amp; os, Episodio &amp;amp;episodio):&amp;nbsp;&lt;span style=&quot;background-color: transparent; color: light-dark(rgb(0, 0, 0), rgb(255, 255, 255));&quot;&gt;ostream&amp;amp;&lt;/span&gt;&lt;/div&gt;&lt;div style=&quot;&quot;&gt;&amp;nbsp;+imprimir():&lt;span style=&quot;background-color: transparent; color: light-dark(rgb(0, 0, 0), rgb(255, 255, 255));&quot;&gt;&amp;nbsp;void&lt;/span&gt;&lt;/div&gt;&lt;div style=&quot;&quot;&gt;&amp;nbsp;+setCalificacion(string nom,float calif):&lt;span style=&quot;background-color: transparent; color: light-dark(rgb(0, 0, 0), rgb(255, 255, 255));&quot;&gt;&amp;nbsp;int&lt;/span&gt;&lt;/div&gt;&lt;/div&gt;" style="verticalAlign=top;align=left;overflow=fill;html=1;whiteSpace=wrap;" vertex="1" parent="1">
                    <mxGeometry x="493" y="730" width="278.09" height="260" as="geometry"/>
                </mxCell>
                <mxCell id="6" value="" style="endArrow=diamondThin;endFill=1;endSize=24;html=1;entryX=0.006;entryY=0.482;entryDx=0;entryDy=0;exitX=-0.013;exitY=0.19;exitDx=0;exitDy=0;edgeStyle=orthogonalEdgeStyle;exitPerimeter=0;fontFamily=Helvetica;entryPerimeter=0;" edge="1" parent="1" source="4" target="2">
                    <mxGeometry width="160" relative="1" as="geometry">
                        <mxPoint x="-8.914999999999964" y="710.98" as="sourcePoint"/>
                        <mxPoint x="262.9100000000001" y="210" as="targetPoint"/>
                        <Array as="points">
                            <mxPoint x="27" y="888"/>
                            <mxPoint x="27" y="210"/>
                            <mxPoint x="177" y="210"/>
                            <mxPoint x="177" y="8"/>
                        </Array>
                    </mxGeometry>
                </mxCell>
                <mxCell id="7" value="Tiene" style="edgeLabel;html=1;align=center;verticalAlign=middle;resizable=0;points=[];" connectable="0" vertex="1" parent="6">
                    <mxGeometry x="-0.2451" relative="1" as="geometry">
                        <mxPoint as="offset"/>
                    </mxGeometry>
                </mxCell>
                <mxCell id="8" value="" style="endArrow=diamondThin;endFill=1;endSize=24;html=1;entryX=0.75;entryY=1;entryDx=0;entryDy=0;exitX=0.5;exitY=0;exitDx=0;exitDy=0;edgeStyle=orthogonalEdgeStyle;" edge="1" parent="1" source="3" target="2">
                    <mxGeometry width="160" relative="1" as="geometry">
                        <mxPoint x="274.9100000000001" y="400" as="sourcePoint"/>
                        <mxPoint x="355.9100000000001" y="160" as="targetPoint"/>
                    </mxGeometry>
                </mxCell>
                <mxCell id="9" value="Tiene" style="edgeLabel;html=1;align=center;verticalAlign=middle;resizable=0;points=[];" connectable="0" vertex="1" parent="8">
                    <mxGeometry x="0.0138" y="1" relative="1" as="geometry">
                        <mxPoint as="offset"/>
                    </mxGeometry>
                </mxCell>
                <mxCell id="10" value="" style="endArrow=diamondThin;endFill=1;endSize=24;html=1;entryX=0.5;entryY=1;entryDx=0;entryDy=0;exitX=0.5;exitY=0;exitDx=0;exitDy=0;edgeStyle=orthogonalEdgeStyle;" edge="1" parent="1" source="5" target="3">
                    <mxGeometry width="160" relative="1" as="geometry">
                        <mxPoint x="332.9100000000001" y="730" as="sourcePoint"/>
                        <mxPoint x="652.9099999999999" y="570" as="targetPoint"/>
                    </mxGeometry>
                </mxCell>
                <mxCell id="11" value="Tiene" style="edgeLabel;html=1;align=center;verticalAlign=middle;resizable=0;points=[];" connectable="0" vertex="1" parent="10">
                    <mxGeometry x="-0.2389" y="-3" relative="1" as="geometry">
                        <mxPoint as="offset"/>
                    </mxGeometry>
                </mxCell>
                <mxCell id="12" value="&lt;p style=&quot;margin:0px;margin-top:4px;text-align:center;&quot;&gt;&lt;b&gt;Video&lt;/b&gt;&lt;/p&gt;&lt;hr size=&quot;1&quot; style=&quot;border-style:solid;&quot;&gt;&lt;p style=&quot;margin:0px;margin-left:4px;&quot;&gt;&lt;/p&gt;&lt;p style=&quot;margin: 0px 0px 0px 4px;&quot;&gt;- id: string&lt;/p&gt;&lt;p style=&quot;margin: 0px 0px 0px 4px;&quot;&gt;# nombre: string&lt;/p&gt;&lt;p style=&quot;margin: 0px 0px 0px 4px;&quot;&gt;&lt;span&gt;&lt;font style=&quot;color: light-dark(rgb(0, 0, 0), rgb(255, 255, 255));&quot;&gt;# fecha_estreno: string&lt;/font&gt;&lt;/span&gt;&lt;/p&gt;&lt;p style=&quot;margin: 0px 0px 0px 4px;&quot;&gt;&lt;span style=&quot;color: rgb(63, 63, 63);&quot;&gt;&lt;font style=&quot;color: light-dark(rgb(0, 0, 0), rgb(255, 255, 255));&quot;&gt;# duracion:float&lt;/font&gt;&lt;/span&gt;&lt;/p&gt;&lt;p style=&quot;margin: 0px 0px 0px 4px;&quot;&gt;&lt;span style=&quot;background-color: transparent;&quot;&gt;# calificacion: float&lt;/span&gt;&lt;/p&gt;&lt;div&gt;&lt;br&gt;&lt;/div&gt;&lt;div&gt;&lt;div style=&quot;line-height: 18px;&quot;&gt;&lt;div style=&quot;&quot;&gt;&amp;nbsp;+Video();&lt;/div&gt;&lt;div style=&quot;&quot;&gt;&amp;nbsp;+Video(string idVid,string nombreVid,string fecha_estrenoVid,int duracionVid,float calificacionVid);&lt;br&gt;&lt;/div&gt;&lt;/div&gt;&lt;/div&gt;" style="verticalAlign=top;align=left;overflow=fill;html=1;whiteSpace=wrap;" vertex="1" parent="1">
                    <mxGeometry x="183" y="570" width="230" height="210" as="geometry"/>
                </mxCell>
                <mxCell id="13" value="Es un" style="endArrow=block;endSize=16;endFill=0;html=1;exitX=0.5;exitY=0;exitDx=0;exitDy=0;entryX=0.25;entryY=1;entryDx=0;entryDy=0;edgeStyle=orthogonalEdgeStyle;" edge="1" parent="1" source="4" target="12">
                    <mxGeometry x="-0.0017" width="160" relative="1" as="geometry">
                        <mxPoint x="342.9100000000001" y="460" as="sourcePoint"/>
                        <mxPoint x="502.9100000000001" y="460" as="targetPoint"/>
                        <mxPoint as="offset"/>
                    </mxGeometry>
                </mxCell>
                <mxCell id="14" value="Es un" style="endArrow=block;endSize=16;endFill=0;html=1;exitX=0;exitY=0.5;exitDx=0;exitDy=0;entryX=0.75;entryY=1;entryDx=0;entryDy=0;edgeStyle=orthogonalEdgeStyle;" edge="1" parent="1" source="5" target="12">
                    <mxGeometry x="-0.001" width="160" relative="1" as="geometry">
                        <mxPoint x="175.90999999999985" y="630" as="sourcePoint"/>
                        <mxPoint x="297.9100000000001" y="530" as="targetPoint"/>
                        <mxPoint as="offset"/>
                    </mxGeometry>
                </mxCell>
                <mxCell id="15" value="" style="line;strokeWidth=1;fillColor=none;align=left;verticalAlign=middle;spacingTop=-1;spacingLeft=3;spacingRight=3;rotatable=0;labelPosition=right;points=[];portConstraint=eastwest;strokeColor=inherit;" vertex="1" parent="1">
                    <mxGeometry x="178.91000000000008" y="671" width="234.09" height="8" as="geometry"/>
                </mxCell>
                <mxCell id="16" value="&lt;p style=&quot;margin:0px;margin-top:4px;text-align:center;&quot;&gt;&lt;b&gt;Contenido &amp;lt;&amp;lt;interface&amp;gt;&amp;gt;&lt;/b&gt;&lt;/p&gt;&lt;hr size=&quot;1&quot; style=&quot;border-style:solid;&quot;&gt;&lt;p style=&quot;margin: 0px 0px 0px 4px;&quot;&gt;&lt;br&gt;&lt;/p&gt;&lt;hr size=&quot;1&quot; style=&quot;border-style:solid;&quot;&gt;&lt;p style=&quot;margin:0px;margin-left:4px;&quot;&gt;&lt;span style=&quot;background-color: transparent; color: light-dark(rgb(0, 0, 0), rgb(255, 255, 255));&quot;&gt;&lt;/span&gt;&lt;/p&gt;&lt;p style=&quot;margin: 0px 0px 0px 4px;&quot;&gt;&lt;span style=&quot;background-color: light-dark(#ffffff, var(--ge-dark-color, #121212));&quot;&gt;+&lt;span style=&quot;font-size: 11px; text-align: center; text-wrap-mode: nowrap; color: light-dark(rgb(0, 0, 0), rgb(255, 255, 255));&quot;&gt;buscarPorNombre (string nom): bool = 0&lt;/span&gt;&lt;/span&gt;&lt;/p&gt;&lt;p style=&quot;margin:0px;margin-left:4px;&quot;&gt;&lt;span style=&quot;background-color: transparent; color: light-dark(rgb(0, 0, 0), rgb(255, 255, 255));&quot;&gt;+buscarPorCalificacion(int calif): int = 0&lt;/span&gt;&lt;/p&gt;&lt;div&gt;&amp;nbsp;+buscarPorGenero(string gen): int = 0&lt;/div&gt;&lt;div&gt;&amp;nbsp;+setCalificacion(string nom, float calif): int = 0&lt;/div&gt;&lt;div&gt;&lt;br&gt;&lt;/div&gt;" style="verticalAlign=top;align=left;overflow=fill;html=1;whiteSpace=wrap;" vertex="1" parent="1">
                    <mxGeometry x="80" y="330" width="246.91" height="130" as="geometry"/>
                </mxCell>
                <mxCell id="17" value="Se comporta como" style="endArrow=block;endSize=16;endFill=0;html=1;exitX=0;exitY=0.5;exitDx=0;exitDy=0;edgeStyle=orthogonalEdgeStyle;dashed=1;dashPattern=8 8;" edge="1" parent="1" source="3" target="16">
                    <mxGeometry x="-0.001" width="160" relative="1" as="geometry">
                        <mxPoint x="428" y="579.5" as="sourcePoint"/>
                        <mxPoint x="303" y="524.5" as="targetPoint"/>
                        <mxPoint as="offset"/>
                    </mxGeometry>
                </mxCell>
                <mxCell id="18" value="Se comporta como" style="endArrow=block;endSize=16;endFill=0;html=1;exitX=0.5;exitY=0;exitDx=0;exitDy=0;edgeStyle=orthogonalEdgeStyle;dashed=1;dashPattern=8 8;entryX=0.5;entryY=1;entryDx=0;entryDy=0;" edge="1" parent="1" source="12" target="16">
                    <mxGeometry x="-0.001" width="160" relative="1" as="geometry">
                        <mxPoint x="480" y="460" as="sourcePoint"/>
                        <mxPoint x="361" y="459" as="targetPoint"/>
                        <mxPoint as="offset"/>
                    </mxGeometry>
                </mxCell>
            </root>
        </mxGraphModel>
    </diagram>
</mxfile>